<svg width="80" height="102" viewBox="0 0 80 102" fill="none" xmlns="http://www.w3.org/2000/svg">
  <g filter="url(#filter0_d_280201_43)">
    <path d="M69.2688 19.173C51.904 28.94 48.4131 50.4357 48.269 51.3584L48.0075 53.1041L49.5899 53.7418C50.0443 53.9703 52.6745 55.316 51.088 59.6975C49.7579 63.5069 45.3639 62.9704 43.5784 62.7056C42.6692 60.3257 40.1707 50.7906 46.045 26.9429C46.3654 25.747 46.6859 24.5511 47.0063 23.3552C47.0063 23.3552 49.661 14.9873 51.0072 11.5027L49.8724 4.57612L45.3835 9.78218C44.8071 13.473 42.9222 22.0472 42.9222 22.0472C42.6017 23.2431 42.2813 24.439 41.9608 25.6349C35.1243 49.2248 28.1663 56.3328 26.2156 57.8396C24.4141 57.2501 20.4634 55.4438 21.2162 51.4798C22.0329 46.892 24.9836 47.0417 25.4914 47.071L27.1806 47.31L27.827 45.6673C28.1636 44.7962 35.8882 24.435 25.7334 7.29412L23.1934 3.30229L5.91622 67.7817L19.8685 71.5202C18.4863 81.2972 24.9617 90.6161 25.2665 91.0182L26.2236 92.4496L27.7683 91.6885C28.2333 91.4927 38.5968 86.6858 42.1921 77.5018L56.1444 81.2403L73.4216 16.7609L69.2688 19.173ZM24.4321 42.9418C22.1978 43.1977 19.2315 44.6459 17.7784 48.5292L15.5653 47.9362L24.4843 14.65C28.8916 26.2988 25.6499 38.7819 24.4321 42.9418ZM21.2354 65.264L20.7976 67.2829L11.0791 64.6789L14.4705 52.0222L16.9722 52.6925C16.9626 56.9625 19.9726 59.5849 22.961 61.1333C21.8496 62.9718 21.3155 64.965 21.2354 65.264ZM25.3035 66.2472C25.5972 65.1509 26.1207 63.5822 26.8688 62.7145C30.2154 64.4657 30.3766 67.7133 30.1045 69.8835L24.8122 68.4655L25.3035 66.2472ZM26.3554 84.2602C25.0023 81.2273 23.5581 76.995 24.006 72.6288L29.1058 73.9953L26.3554 84.2602ZM34.4916 63.9025C34.2458 64.0502 33.9732 64.2977 33.7006 64.5451C33.5883 64.1945 33.4493 63.9436 33.3369 63.5931C32.5989 62.1136 31.6151 60.7818 30.332 59.7971C32.32 57.7663 35.0239 54.2182 38.1601 47.902C37.7181 54.9401 38.259 59.4644 38.992 62.1176C37.3884 62.3288 35.8972 62.8905 34.4916 63.9025ZM30.3272 85.2176L33.051 75.0524L38.1508 76.4189C36.4786 80.3502 33.1117 83.2934 30.3272 85.2176ZM40.218 70.2435L39.561 72.3106L34.2687 70.8925C35.1182 68.877 36.8815 66.1451 40.6554 66.3018C40.8427 67.5269 40.5117 69.1473 40.218 70.2435ZM52.6253 50.4962C53.5277 46.3586 57.0581 33.9528 66.726 25.9687L57.807 59.2548L55.5939 58.6618C56.3038 54.4726 54.5285 51.8607 52.6253 50.4962ZM43.6023 73.3934L44.2326 71.426C44.3127 71.1271 44.943 69.1597 44.8997 67.0118C48.1391 67.2389 52.0838 66.3732 54.3066 62.6962L56.8084 63.3666L53.417 76.0233L43.6023 73.3934Z" fill="#F2CD13" />
    <path d="M41.4798 25.4985L41.4792 25.5006C34.8914 48.2299 28.2163 55.5293 26.1168 57.2777C25.2493 56.9698 24.0413 56.4191 23.095 55.5558C22.0709 54.6213 21.3711 53.3442 21.7074 51.5731L21.7074 51.5731L21.7084 51.5674C22.097 49.385 22.9717 48.4179 23.7236 47.9747C24.4736 47.5327 25.1938 47.5554 25.4422 47.569L27.1106 47.805L27.5014 47.8603L27.6459 47.4931L28.2923 45.8504L28.2934 45.8475C28.4706 45.3891 30.5023 40.0338 31.2122 32.6296C31.9218 25.2279 31.3144 15.7336 26.1636 7.03927L26.1595 7.03242L26.1552 7.0257L23.6153 3.03387L23.0048 2.07444L22.7105 3.17288L5.43325 67.6523L5.30384 68.1352L5.78681 68.2646L19.3163 71.8899C18.7415 76.7462 20.0153 81.4383 21.4726 84.9752C22.95 88.5609 24.6358 91.0068 24.8581 91.307L25.808 92.7275L26.0516 93.0918L26.4446 92.8981L27.9773 92.1429C28.318 91.9955 31.0247 90.727 34.1104 88.3626C37.1522 86.0318 40.6026 82.6052 42.4896 78.0991L56.0149 81.7232L56.4979 81.8526L56.6273 81.3697L73.9045 16.8903L74.2181 15.72L73.1704 16.3285L69.0237 18.7372C69.0226 18.7378 69.0216 18.7384 69.0206 18.7389C60.2145 23.6932 54.9422 31.6107 51.8562 38.3748C48.7689 45.1419 47.8508 50.7956 47.775 51.2812L47.7745 51.2843L47.513 53.0301L47.4546 53.4204L47.8206 53.5679L49.3835 54.1977C49.6054 54.3101 50.2405 54.6505 50.669 55.4084C51.0986 56.1681 51.3726 57.443 50.6178 59.5273L50.6178 59.5273L50.6159 59.5327C50.0242 61.2273 48.7699 61.9558 47.4023 62.2398C46.1531 62.4992 44.8447 62.3764 43.9457 62.2531C43.0145 59.5745 40.8827 49.9931 46.5293 27.0674L46.5298 27.0653L46.5317 27.0583L46.5336 27.0513L46.5355 27.0443L46.5373 27.0373L46.5392 27.0302L46.5411 27.0232L46.543 27.0162L46.5449 27.0092L46.5467 27.0022L46.5486 26.9952L46.5505 26.9882L46.5524 26.9812L46.5542 26.9742L46.5561 26.9672L46.558 26.9602L46.5599 26.9532L46.5618 26.9462L46.5636 26.9392L46.5655 26.9321L46.5674 26.9251L46.5693 26.9181L46.5711 26.9111L46.573 26.9041L46.5749 26.8971L46.5768 26.8901L46.5787 26.8831L46.5805 26.8761L46.5824 26.8691L46.5843 26.8621L46.5862 26.8551L46.588 26.8481L46.5899 26.8411L46.5918 26.834L46.5937 26.827L46.5956 26.82L46.5974 26.813L46.5993 26.806L46.6012 26.799L46.6031 26.792L46.6049 26.785L46.6068 26.778L46.6087 26.771L46.6106 26.764L46.6124 26.757L46.6143 26.75L46.6162 26.743L46.6181 26.7359L46.62 26.7289L46.6218 26.7219L46.6237 26.7149L46.6256 26.7079L46.6275 26.7009L46.6293 26.6939L46.6312 26.6869L46.6331 26.6799L46.635 26.6729L46.6369 26.6659L46.6387 26.6589L46.6406 26.6519L46.6425 26.6448L46.6444 26.6378L46.6462 26.6308L46.6481 26.6238L46.65 26.6168L46.6519 26.6098L46.6538 26.6028L46.6556 26.5958L46.6575 26.5888L46.6594 26.5818L46.6613 26.5748L46.6631 26.5678L46.665 26.5608L46.6669 26.5538L46.6688 26.5467L46.6707 26.5397L46.6725 26.5327L46.6744 26.5257L46.6763 26.5187L46.6782 26.5117L46.68 26.5047L46.6819 26.4977L46.6838 26.4907L46.6857 26.4837L46.6876 26.4767L46.6894 26.4697L46.6913 26.4627L46.6932 26.4557L46.6951 26.4486L46.6969 26.4416L46.6988 26.4346L46.7007 26.4276L46.7026 26.4206L46.7045 26.4136L46.7063 26.4066L46.7082 26.3996L46.7101 26.3926L46.712 26.3856L46.7138 26.3786L46.7157 26.3716L46.7176 26.3646L46.7195 26.3576L46.7214 26.3505L46.7232 26.3435L46.7251 26.3365L46.727 26.3295L46.7289 26.3225L46.7307 26.3155L46.7326 26.3085L46.7345 26.3015L46.7364 26.2945L46.7382 26.2875L46.7401 26.2805L46.742 26.2735L46.7439 26.2665L46.7458 26.2594L46.7476 26.2524L46.7495 26.2454L46.7514 26.2384L46.7533 26.2314L46.7551 26.2244L46.757 26.2174L46.7589 26.2104L46.7608 26.2034L46.7627 26.1964L46.7645 26.1894L46.7664 26.1824L46.7683 26.1754L46.7702 26.1684L46.772 26.1613L46.7739 26.1543L46.7758 26.1473L46.7777 26.1403L46.7796 26.1333L46.7814 26.1263L46.7833 26.1193L46.7852 26.1123L46.7871 26.1053L46.7889 26.0983L46.7908 26.0913L46.7927 26.0843L46.7946 26.0773L46.7965 26.0703L46.7983 26.0632L46.8002 26.0562L46.8021 26.0492L46.804 26.0422L46.8058 26.0352L46.8077 26.0282L46.8096 26.0212L46.8115 26.0142L46.8134 26.0072L46.8152 26.0002L46.8171 25.9932L46.819 25.9862L46.8209 25.9792L46.8227 25.9721L46.8246 25.9651L46.8265 25.9581L46.8284 25.9511L46.8303 25.9441L46.8321 25.9371L46.834 25.9301L46.8359 25.9231L46.8378 25.9161L46.8396 25.9091L46.8415 25.9021L46.8434 25.8951L46.8453 25.8881L46.8471 25.8811L46.849 25.874L46.8509 25.867L46.8528 25.86L46.8547 25.853L46.8565 25.846L46.8584 25.839L46.8603 25.832L46.8622 25.825L46.864 25.818L46.8659 25.811L46.8678 25.804L46.8697 25.797L46.8716 25.79L46.8734 25.783L46.8753 25.7759L46.8772 25.7689L46.8791 25.7619L46.8809 25.7549L46.8828 25.7479L46.8847 25.7409L46.8866 25.7339L46.8885 25.7269L46.8903 25.7199L46.8922 25.7129L46.8941 25.7059L46.896 25.6989L46.8978 25.6919L46.8997 25.6849L46.9016 25.6778L46.9035 25.6708L46.9054 25.6638L46.9072 25.6568L46.9091 25.6498L46.911 25.6428L46.9129 25.6358L46.9147 25.6288L46.9166 25.6218L46.9185 25.6148L46.9204 25.6078L46.9223 25.6008L46.9241 25.5938L46.926 25.5868L46.9279 25.5797L46.9298 25.5727L46.9316 25.5657L46.9335 25.5587L46.9354 25.5517L46.9373 25.5447L46.9392 25.5377L46.941 25.5307L46.9429 25.5237L46.9448 25.5167L46.9467 25.5097L46.9485 25.5027L46.9504 25.4957L46.9523 25.4886L46.9542 25.4816L46.956 25.4746L46.9579 25.4676L46.9598 25.4606L46.9617 25.4536L46.9636 25.4466L46.9654 25.4396L46.9673 25.4326L46.9692 25.4256L46.9711 25.4186L46.9729 25.4116L46.9748 25.4046L46.9767 25.3976L46.9786 25.3905L46.9805 25.3835L46.9823 25.3765L46.9842 25.3695L46.9861 25.3625L46.988 25.3555L46.9898 25.3485L46.9917 25.3415L46.9936 25.3345L46.9955 25.3275L46.9974 25.3205L46.9992 25.3135L47.0011 25.3065L47.003 25.2995L47.0049 25.2924L47.0067 25.2854L47.0086 25.2784L47.0105 25.2714L47.0124 25.2644L47.0143 25.2574L47.0161 25.2504L47.018 25.2434L47.0199 25.2364L47.0218 25.2294L47.0236 25.2224L47.0255 25.2154L47.0274 25.2084L47.0293 25.2013L47.0312 25.1943L47.033 25.1873L47.0349 25.1803L47.0368 25.1733L47.0387 25.1663L47.0405 25.1593L47.0424 25.1523L47.0443 25.1453L47.0462 25.1383L47.0481 25.1313L47.0499 25.1243L47.0518 25.1173L47.0537 25.1103L47.0556 25.1032L47.0574 25.0962L47.0593 25.0892L47.0612 25.0822L47.0631 25.0752L47.065 25.0682L47.0668 25.0612L47.0687 25.0542L47.0706 25.0472L47.0725 25.0402L47.0743 25.0332L47.0762 25.0262L47.0781 25.0192L47.08 25.0122L47.0818 25.0051L47.0837 24.9981L47.0856 24.9911L47.0875 24.9841L47.0894 24.9771L47.0912 24.9701L47.0931 24.9631L47.095 24.9561L47.0969 24.9491L47.0987 24.9421L47.1006 24.9351L47.1025 24.9281L47.1044 24.9211L47.1063 24.9141L47.1081 24.907L47.11 24.9L47.1119 24.893L47.1138 24.886L47.1156 24.879L47.1175 24.872L47.1194 24.865L47.1213 24.858L47.1232 24.851L47.125 24.844L47.1269 24.837L47.1288 24.83L47.1307 24.823L47.1325 24.816L47.1344 24.8089L47.1363 24.8019L47.1382 24.7949L47.1401 24.7879L47.1419 24.7809L47.1438 24.7739L47.1457 24.7669L47.1476 24.7599L47.1494 24.7529L47.1513 24.7459L47.1532 24.7389L47.1551 24.7319L47.157 24.7249L47.1588 24.7178L47.1607 24.7108L47.1626 24.7038L47.1645 24.6968L47.1663 24.6898L47.1682 24.6828L47.1701 24.6758L47.172 24.6688L47.1739 24.6618L47.1757 24.6548L47.1776 24.6478L47.1795 24.6408L47.1814 24.6338L47.1832 24.6268L47.1851 24.6197L47.187 24.6127L47.1889 24.6057L47.1907 24.5987L47.1926 24.5917L47.1945 24.5847L47.1964 24.5777L47.1983 24.5707L47.2001 24.5637L47.202 24.5567L47.2039 24.5497L47.2058 24.5427L47.2076 24.5357L47.2095 24.5287L47.2114 24.5216L47.2133 24.5146L47.2152 24.5076L47.217 24.5006L47.2189 24.4936L47.2208 24.4866L47.2227 24.4796L47.2245 24.4726L47.2264 24.4656L47.2283 24.4586L47.2302 24.4516L47.2321 24.4446L47.2339 24.4376L47.2358 24.4305L47.2377 24.4235L47.2396 24.4165L47.2414 24.4095L47.2433 24.4025L47.2452 24.3955L47.2471 24.3885L47.249 24.3815L47.2508 24.3745L47.2527 24.3675L47.2546 24.3605L47.2565 24.3535L47.2583 24.3465L47.2602 24.3395L47.2621 24.3324L47.264 24.3254L47.2659 24.3184L47.2677 24.3114L47.2696 24.3044L47.2715 24.2974L47.2734 24.2904L47.2752 24.2834L47.2771 24.2764L47.279 24.2694L47.2809 24.2624L47.2828 24.2554L47.2846 24.2484L47.2865 24.2414L47.2884 24.2343L47.2903 24.2273L47.2921 24.2203L47.294 24.2133L47.2959 24.2063L47.2978 24.1993L47.2996 24.1923L47.3015 24.1853L47.3034 24.1783L47.3053 24.1713L47.3072 24.1643L47.309 24.1573L47.3109 24.1503L47.3128 24.1433L47.3147 24.1362L47.3165 24.1292L47.3184 24.1222L47.3203 24.1152L47.3222 24.1082L47.3241 24.1012L47.3259 24.0942L47.3278 24.0872L47.3297 24.0802L47.3316 24.0732L47.3334 24.0662L47.3353 24.0592L47.3372 24.0522L47.3391 24.0451L47.341 24.0381L47.3428 24.0311L47.3447 24.0241L47.3466 24.0171L47.3485 24.0101L47.3503 24.0031L47.3522 23.9961L47.3541 23.9891L47.356 23.9821L47.3579 23.9751L47.3597 23.9681L47.3616 23.9611L47.3635 23.9541L47.3654 23.947L47.3672 23.94L47.3691 23.933L47.371 23.926L47.3729 23.919L47.3748 23.912L47.3766 23.905L47.3785 23.898L47.3804 23.891L47.3823 23.884L47.3841 23.877L47.386 23.87L47.3879 23.863L47.3898 23.856L47.3917 23.8489L47.3935 23.8419L47.3954 23.8349L47.3973 23.8279L47.3992 23.8209L47.401 23.8139L47.4029 23.8069L47.4048 23.7999L47.4067 23.7929L47.4085 23.7859L47.4104 23.7789L47.4123 23.7719L47.4142 23.7649L47.4161 23.7579L47.4179 23.7508L47.4198 23.7438L47.4217 23.7368L47.4236 23.7298L47.4254 23.7228L47.4273 23.7158L47.4292 23.7088L47.4311 23.7018L47.433 23.6948L47.4348 23.6878L47.4367 23.6808L47.4386 23.6738L47.4405 23.6668L47.4423 23.6597L47.4442 23.6527L47.4461 23.6457L47.448 23.6387L47.4499 23.6317L47.4517 23.6247L47.4536 23.6177L47.4555 23.6107L47.4574 23.6037L47.4592 23.5967L47.4611 23.5897L47.463 23.5827L47.4649 23.5757L47.4668 23.5687L47.4686 23.5616L47.4705 23.5546L47.4724 23.5476L47.4743 23.5406L47.4761 23.5336L47.478 23.5266L47.4799 23.5196L47.4818 23.5126L47.4837 23.5056L47.4855 23.4986L47.4863 23.4956L47.4905 23.4824L47.5129 23.4119L47.5993 23.1409C47.6745 22.9056 47.7833 22.5654 47.9181 22.1464C48.1878 21.3082 48.5613 20.1544 48.9769 18.892C49.8093 16.3629 50.8058 13.4115 51.4736 11.6829L51.5226 11.556L51.5007 11.4218L50.3658 4.49528L50.1928 3.43891L49.4937 4.24962L45.0048 9.45567L44.9115 9.56387L44.8895 9.70503C44.6035 11.536 43.9908 14.5902 43.4472 17.1967C43.1759 18.4977 42.9225 19.6837 42.7369 20.5444C42.6441 20.9748 42.5683 21.3238 42.5157 21.5651L42.455 21.8431L42.4392 21.9153L42.4362 21.9288L42.4354 21.9318L42.4336 21.9388L42.4317 21.9458L42.4298 21.9528L42.4279 21.9598L42.4261 21.9668L42.4242 21.9738L42.4223 21.9808L42.4204 21.9878L42.4185 21.9949L42.4167 22.0019L42.4148 22.0089L42.4129 22.0159L42.411 22.0229L42.4092 22.0299L42.4073 22.0369L42.4054 22.0439L42.4035 22.0509L42.4016 22.0579L42.3998 22.0649L42.3979 22.0719L42.396 22.0789L42.3941 22.0859L42.3923 22.093L42.3904 22.1L42.3885 22.107L42.3866 22.114L42.3848 22.121L42.3829 22.128L42.381 22.135L42.3791 22.142L42.3772 22.149L42.3754 22.156L42.3735 22.163L42.3716 22.17L42.3697 22.177L42.3679 22.1841L42.366 22.1911L42.3641 22.1981L42.3622 22.2051L42.3603 22.2121L42.3585 22.2191L42.3566 22.2261L42.3547 22.2331L42.3528 22.2401L42.351 22.2471L42.3491 22.2541L42.3472 22.2611L42.3453 22.2681L42.3434 22.2751L42.3416 22.2822L42.3397 22.2892L42.3378 22.2962L42.3359 22.3032L42.3341 22.3102L42.3322 22.3172L42.3303 22.3242L42.3284 22.3312L42.3265 22.3382L42.3247 22.3452L42.3228 22.3522L42.3209 22.3592L42.319 22.3662L42.3172 22.3732L42.3153 22.3803L42.3134 22.3873L42.3115 22.3943L42.3096 22.4013L42.3078 22.4083L42.3059 22.4153L42.304 22.4223L42.3021 22.4293L42.3003 22.4363L42.2984 22.4433L42.2965 22.4503L42.2946 22.4573L42.2927 22.4643L42.2909 22.4714L42.289 22.4784L42.2871 22.4854L42.2852 22.4924L42.2834 22.4994L42.2815 22.5064L42.2796 22.5134L42.2777 22.5204L42.2759 22.5274L42.274 22.5344L42.2721 22.5414L42.2702 22.5484L42.2683 22.5554L42.2665 22.5624L42.2646 22.5695L42.2627 22.5765L42.2608 22.5835L42.259 22.5905L42.2571 22.5975L42.2552 22.6045L42.2533 22.6115L42.2514 22.6185L42.2496 22.6255L42.2477 22.6325L42.2458 22.6395L42.2439 22.6465L42.2421 22.6535L42.2402 22.6605L42.2383 22.6676L42.2364 22.6746L42.2345 22.6816L42.2327 22.6886L42.2308 22.6956L42.2289 22.7026L42.227 22.7096L42.2252 22.7166L42.2233 22.7236L42.2214 22.7306L42.2195 22.7376L42.2176 22.7446L42.2158 22.7516L42.2139 22.7586L42.212 22.7657L42.2101 22.7727L42.2083 22.7797L42.2064 22.7867L42.2045 22.7937L42.2026 22.8007L42.2007 22.8077L42.1989 22.8147L42.197 22.8217L42.1951 22.8287L42.1932 22.8357L42.1914 22.8427L42.1895 22.8497L42.1876 22.8567L42.1857 22.8638L42.1838 22.8708L42.182 22.8778L42.1801 22.8848L42.1782 22.8918L42.1763 22.8988L42.1745 22.9058L42.1726 22.9128L42.1707 22.9198L42.1688 22.9268L42.1669 22.9338L42.1651 22.9408L42.1632 22.9478L42.1613 22.9549L42.1594 22.9619L42.1576 22.9689L42.1557 22.9759L42.1538 22.9829L42.1519 22.9899L42.1501 22.9969L42.1482 23.0039L42.1463 23.0109L42.1444 23.0179L42.1425 23.0249L42.1407 23.0319L42.1388 23.0389L42.1369 23.0459L42.135 23.053L42.1332 23.06L42.1313 23.067L42.1294 23.074L42.1275 23.081L42.1256 23.088L42.1238 23.095L42.1219 23.102L42.12 23.109L42.1181 23.116L42.1163 23.123L42.1144 23.13L42.1125 23.137L42.1106 23.144L42.1087 23.1511L42.1069 23.1581L42.105 23.1651L42.1031 23.1721L42.1012 23.1791L42.0994 23.1861L42.0975 23.1931L42.0956 23.2001L42.0937 23.2071L42.0918 23.2141L42.09 23.2211L42.0881 23.2281L42.0862 23.2351L42.0843 23.2421L42.0825 23.2492L42.0806 23.2562L42.0787 23.2632L42.0768 23.2702L42.0749 23.2772L42.0731 23.2842L42.0712 23.2912L42.0693 23.2982L42.0674 23.3052L42.0656 23.3122L42.0637 23.3192L42.0618 23.3262L42.0599 23.3332L42.058 23.3403L42.0562 23.3473L42.0543 23.3543L42.0524 23.3613L42.0505 23.3683L42.0487 23.3753L42.0468 23.3823L42.0449 23.3893L42.043 23.3963L42.0412 23.4033L42.0393 23.4103L42.0374 23.4173L42.0355 23.4243L42.0336 23.4313L42.0318 23.4384L42.0299 23.4454L42.028 23.4524L42.0261 23.4594L42.0243 23.4664L42.0224 23.4734L42.0205 23.4804L42.0186 23.4874L42.0167 23.4944L42.0149 23.5014L42.013 23.5084L42.0111 23.5154L42.0092 23.5224L42.0074 23.5294L42.0055 23.5365L42.0036 23.5435L42.0017 23.5505L41.9998 23.5575L41.998 23.5645L41.9961 23.5715L41.9942 23.5785L41.9923 23.5855L41.9905 23.5925L41.9886 23.5995L41.9867 23.6065L41.9848 23.6135L41.9829 23.6205L41.9811 23.6275L41.9792 23.6346L41.9773 23.6416L41.9754 23.6486L41.9736 23.6556L41.9717 23.6626L41.9698 23.6696L41.9679 23.6766L41.966 23.6836L41.9642 23.6906L41.9623 23.6976L41.9604 23.7046L41.9585 23.7116L41.9567 23.7186L41.9548 23.7257L41.9529 23.7327L41.951 23.7397L41.9491 23.7467L41.9473 23.7537L41.9454 23.7607L41.9435 23.7677L41.9416 23.7747L41.9398 23.7817L41.9379 23.7887L41.936 23.7957L41.9341 23.8027L41.9323 23.8097L41.9304 23.8167L41.9285 23.8238L41.9266 23.8308L41.9247 23.8378L41.9229 23.8448L41.921 23.8518L41.9191 23.8588L41.9172 23.8658L41.9154 23.8728L41.9135 23.8798L41.9116 23.8868L41.9097 23.8938L41.9078 23.9008L41.906 23.9078L41.9041 23.9148L41.9022 23.9219L41.9003 23.9289L41.8985 23.9359L41.8966 23.9429L41.8947 23.9499L41.8928 23.9569L41.8909 23.9639L41.8891 23.9709L41.8872 23.9779L41.8853 23.9849L41.8834 23.9919L41.8816 23.9989L41.8797 24.0059L41.8778 24.0129L41.8759 24.02L41.874 24.027L41.8722 24.034L41.8703 24.041L41.8684 24.048L41.8665 24.055L41.8647 24.062L41.8628 24.069L41.8609 24.076L41.859 24.083L41.8571 24.09L41.8553 24.097L41.8534 24.104L41.8515 24.1111L41.8496 24.1181L41.8478 24.1251L41.8459 24.1321L41.844 24.1391L41.8421 24.1461L41.8402 24.1531L41.8384 24.1601L41.8365 24.1671L41.8346 24.1741L41.8327 24.1811L41.8309 24.1881L41.829 24.1951L41.8271 24.2021L41.8252 24.2092L41.8234 24.2162L41.8215 24.2232L41.8196 24.2302L41.8177 24.2372L41.8158 24.2442L41.814 24.2512L41.8121 24.2582L41.8102 24.2652L41.8083 24.2722L41.8065 24.2792L41.8046 24.2862L41.8027 24.2932L41.8008 24.3002L41.7989 24.3073L41.7971 24.3143L41.7952 24.3213L41.7933 24.3283L41.7914 24.3353L41.7896 24.3423L41.7877 24.3493L41.7858 24.3563L41.7839 24.3633L41.782 24.3703L41.7802 24.3773L41.7783 24.3843L41.7764 24.3913L41.7745 24.3983L41.7727 24.4054L41.7708 24.4124L41.7689 24.4194L41.767 24.4264L41.7651 24.4334L41.7633 24.4404L41.7614 24.4474L41.7595 24.4544L41.7576 24.4614L41.7558 24.4684L41.7539 24.4754L41.752 24.4824L41.7501 24.4894L41.7482 24.4965L41.7464 24.5035L41.7445 24.5105L41.7426 24.5175L41.7407 24.5245L41.7389 24.5315L41.737 24.5385L41.7351 24.5455L41.7332 24.5525L41.7313 24.5595L41.7295 24.5665L41.7276 24.5735L41.7257 24.5805L41.7238 24.5875L41.722 24.5946L41.7201 24.6016L41.7182 24.6086L41.7163 24.6156L41.7144 24.6226L41.7126 24.6296L41.7107 24.6366L41.7088 24.6436L41.7069 24.6506L41.7051 24.6576L41.7032 24.6646L41.7013 24.6716L41.6994 24.6786L41.6976 24.6856L41.6957 24.6927L41.6938 24.6997L41.6919 24.7067L41.69 24.7137L41.6882 24.7207L41.6863 24.7277L41.6844 24.7347L41.6825 24.7417L41.6807 24.7487L41.6788 24.7557L41.6769 24.7627L41.675 24.7697L41.6731 24.7767L41.6713 24.7837L41.6694 24.7908L41.6675 24.7978L41.6656 24.8048L41.6638 24.8118L41.6619 24.8188L41.66 24.8258L41.6581 24.8328L41.6562 24.8398L41.6544 24.8468L41.6525 24.8538L41.6506 24.8608L41.6487 24.8678L41.6469 24.8748L41.645 24.8819L41.6431 24.8889L41.6412 24.8959L41.6393 24.9029L41.6375 24.9099L41.6356 24.9169L41.6337 24.9239L41.6318 24.9309L41.63 24.9379L41.6281 24.9449L41.6262 24.9519L41.6243 24.9589L41.6224 24.9659L41.6206 24.9729L41.6187 24.98L41.6168 24.987L41.6149 24.994L41.6131 25.001L41.6112 25.008L41.6093 25.015L41.6074 25.022L41.6055 25.029L41.6037 25.036L41.6018 25.043L41.5999 25.05L41.598 25.057L41.5962 25.064L41.5943 25.071L41.5924 25.0781L41.5905 25.0851L41.5887 25.0921L41.5868 25.0991L41.5849 25.1061L41.583 25.1131L41.5811 25.1201L41.5793 25.1271L41.5774 25.1341L41.5755 25.1411L41.5736 25.1481L41.5718 25.1551L41.5699 25.1621L41.568 25.1692L41.5661 25.1762L41.5642 25.1832L41.5624 25.1902L41.5605 25.1972L41.5586 25.2042L41.5567 25.2112L41.5549 25.2182L41.553 25.2252L41.5511 25.2322L41.5492 25.2392L41.5473 25.2462L41.5455 25.2532L41.5436 25.2602L41.5417 25.2673L41.5398 25.2743L41.538 25.2813L41.5361 25.2883L41.5342 25.2953L41.5323 25.3023L41.5304 25.3093L41.5286 25.3163L41.5267 25.3233L41.5248 25.3303L41.5229 25.3373L41.5211 25.3443L41.5192 25.3513L41.5173 25.3583L41.5154 25.3654L41.5135 25.3724L41.5117 25.3794L41.5098 25.3864L41.5079 25.3934L41.506 25.4004L41.5042 25.4074L41.5023 25.4144L41.5004 25.4214L41.4985 25.4284L41.4966 25.4354L41.4948 25.4424L41.4929 25.4494L41.491 25.4564L41.4891 25.4635L41.4873 25.4705L41.4854 25.4775L41.4835 25.4845L41.4816 25.4915L41.4798 25.4985ZM20.7525 65.1346L20.7493 65.1462L20.7468 65.158L20.4202 66.6642L11.6915 64.3253L14.824 52.6345L16.4792 53.0781C16.6376 57.1766 19.4541 59.7648 22.2703 61.33C21.3006 63.0888 20.8298 64.8461 20.7529 65.1331L20.7525 65.1346ZM33.7844 63.3699C33.1044 62.0068 32.214 60.7475 31.0668 59.752C32.8141 57.8819 35.026 54.9268 37.5466 50.1903C37.3574 55.5486 37.7751 59.2719 38.3696 61.7096C36.9022 61.9797 35.5216 62.5483 34.2154 63.4853C34.1138 63.5477 34.0107 63.6223 33.9086 63.7027C33.8742 63.6168 33.8425 63.5324 33.8131 63.4405L33.8014 63.4041L33.7844 63.3699ZM54.5328 63.2745L56.196 63.7201L53.0635 75.4109L44.2386 73.0463L44.7088 71.5786L44.7124 71.5671L44.7156 71.5554C44.7219 71.5319 44.7323 71.4957 44.7462 71.4478C44.8827 70.9758 45.3478 69.3677 45.3975 67.5379C48.5384 67.6397 52.2719 66.7103 54.5328 63.2745ZM16.1777 47.5826L24.5472 16.3471C27.9957 27.1051 25.2577 38.2632 24.0423 42.4908C21.7827 42.8527 18.9836 44.3424 17.4778 47.931L16.1777 47.5826ZM25.4039 68.1063L25.7893 66.3661C25.9326 65.8323 26.1297 65.1922 26.3785 64.5846C26.5663 64.1258 26.7764 63.7039 27.0039 63.3641C29.4608 64.8517 29.8128 67.2952 29.6661 69.2484L25.4039 68.1063ZM28.4935 74.3489L26.2487 82.7263C25.1741 80.039 24.2362 76.7016 24.4547 73.2667L28.4935 74.3489ZM37.4535 76.7497C36.0059 79.7932 33.5143 82.2144 31.1744 83.9878L33.4045 75.6648L37.4535 76.7497ZM39.738 70.103L39.2291 71.704L34.9659 70.5617C35.8144 68.799 37.3382 66.8614 40.2029 66.797C40.258 67.8488 39.9948 69.1422 39.738 70.103ZM56.1549 58.2945C56.6772 54.345 55.0483 51.7473 53.1836 50.2897C54.1381 46.0998 57.4253 35.0926 65.8198 27.4187L57.4534 58.6424L56.1549 58.2945Z" stroke="#1E1B1B" />
  </g>
  <defs>
    <filter id="filter0_d_280201_43" x="0.691528" y="0.846619" width="78.3231" height="100.887" filterUnits="userSpaceOnUse" color-interpolation-filters="sRGB">
      <feFlood flood-opacity="0" result="BackgroundImageFix" />
      <feColorMatrix in="SourceAlpha" type="matrix" values="0 0 0 0 0 0 0 0 0 0 0 0 0 0 0 0 0 0 127 0" result="hardAlpha" />
      <feOffset dy="4" />
      <feGaussianBlur stdDeviation="2" />
      <feComposite in2="hardAlpha" operator="out" />
      <feColorMatrix type="matrix" values="0 0 0 0 0 0 0 0 0 0 0 0 0 0 0 0 0 0 0.25 0" />
      <feBlend mode="normal" in2="BackgroundImageFix" result="effect1_dropShadow_280201_43" />
      <feBlend mode="normal" in="SourceGraphic" in2="effect1_dropShadow_280201_43" result="shape" />
    </filter>
  </defs>
</svg>